PathFileType	4	(X/Y/Z)	C:/Users/CLatella/Desktop/xsens/test 26Settembre2016/Meri-002.trc	
DataRate	CameraRate	NumFrames	NumMarkers	Units	OrigDataRate	OrigDataStartFrame	OrigNumFrames	
240.00	240.00	5	64	mm	240.00	796	1060	
Frame#	Time	pHipOrigin			pRightASI			pLeftASI			pRightCSI			pLeftCSI			pRightIschialTub			pLeftIschialTub			pSacrum			pL5SpinalProcess			pL3SpinalProcess			pT12SpinalProcess			pPX			pIJ			pT4SpinalProcess			pT8SpinalProcess			pC7SpinalProcess			pTopOfHead			pRightAuricularis			pLeftAuricularis			pBackOfHead			pRightAcromion			pLeftAcromion			pRightArmLatEpicondyle			pRightArmMedEpicondyle			pLeftArmLatEpicondyle			pLeftArmMedEpicondyle			pRightUlnarStyloid			pRightRadialStyloid			pRightOlecranon			pLeftUlnarStyloid			pLeftRadialStyloid			pLeftOlecranon			pRightTopOfHand			pRightPinky			pRightBallHand			pLeftTopOfHand			pLeftPinky			pLeftBallHand			pRightGreaterTrochanter			pRightKneeLatEpicondyle			pRightKneeMedEpicondyle			pRightPatella			pLeftGreaterTrochanter			pLeftKneeLatEpicondyle			pLeftKneeMedEpicondyle			pLeftPatella			pRightLatMalleolus			pRightMedMalleolus			pRightTibialTub			pLeftLatMalleolus			pLeftMedMalleolus			pLeftTibialTub			pRightHeelFoot			pRightFirstMetatarsal			pRightFifthMetatarsal			pRightPivotFoot			pRightHeelCenter			pRightToe			pLeftHeelFoot			pLeftFirstMetatarsal			pLeftFifthMetatarsal			pLeftPivotFoot			pLeftHeelCenter			pLeftToe			
		X1	Y1	Z1	X2	Y2	Z2	X3	Y3	Z3	X4	Y4	Z4	X5	Y5	Z5	X6	Y6	Z6	X7	Y7	Z7	X8	Y8	Z8	X9	Y9	Z9	X10	Y10	Z10	X11	Y11	Z11	X12	Y12	Z12	X13	Y13	Z13	X14	Y14	Z14	X15	Y15	Z15	X16	Y16	Z16	X17	Y17	Z17	X18	Y18	Z18	X19	Y19	Z19	X20	Y20	Z20	X21	Y21	Z21	X22	Y22	Z22	X23	Y23	Z23	X24	Y24	Z24	X25	Y25	Z25	X26	Y26	Z26	X27	Y27	Z27	X28	Y28	Z28	X29	Y29	Z29	X30	Y30	Z30	X31	Y31	Z31	X32	Y32	Z32	X33	Y33	Z33	X34	Y34	Z34	X35	Y35	Z35	X36	Y36	Z36	X37	Y37	Z37	X38	Y38	Z38	X39	Y39	Z39	X40	Y40	Z40	X41	Y41	Z41	X42	Y42	Z42	X43	Y43	Z43	X44	Y44	Z44	X45	Y45	Z45	X46	Y46	Z46	X47	Y47	Z47	X48	Y48	Z48	X49	Y49	Z49	X50	Y50	Z50	X51	Y51	Z51	X52	Y52	Z52	X53	Y53	Z53	X54	Y54	Z54	X55	Y55	Z55	X56	Y56	Z56	X57	Y57	Z57	X58	Y58	Z58	X59	Y59	Z59	X60	Y60	Z60	X61	Y61	Z61	X62	Y62	Z62	X63	Y63	Z63	X64	Y64	Z64	

796	3.313	132.93441	-8.68918	927.79431	217.62891	-122.69716	989.71718	200.10075	116.20525	990.01680	193.95840	-103.72080	1066.42163	179.47644	93.73324	1066.67132	76.70445	-62.42224	890.29102	69.46347	36.30478	890.44084	70.16260	-13.33339	962.40120	118.35258	-9.38831	1029.86716	153.40891	-9.58806	1129.69282	192.26051	-10.33712	1214.68695	352.46096	-6.74160	1216.33489	409.78955	-9.48818	1311.06689	283.59674	-13.68296	1362.55276	238.75260	-11.78532	1294.98692	309.36465	-13.53314	1402.50300	522.94860	-10.18731	1539.88187	442.39893	-76.95414	1488.44594	447.64240	52.93406	1477.11006	404.14658	-7.69042	1513.46478	337.22994	-182.52264	1367.09710	311.96141	163.79597	1352.56520	343.82172	-171.73608	1050.89098	337.97900	-111.11160	1054.78612	305.46950	152.41015	1034.26169	300.52566	91.68579	1036.90839	381.67457	-132.23528	826.17089	424.77089	-117.05419	837.55671	319.45208	-151.41140	1047.69496	343.42222	130.68721	808.69267	383.17271	107.26639	818.03103	283.19724	136.13043	1031.56505	567.89261	-144.96942	787.01966	487.04332	-143.92073	770.83982	429.66480	-123.14660	803.79876	494.43412	215.18196	757.70618	414.98308	193.20933	758.95462	377.97918	140.52496	784.87234	147.26656	-157.10431	901.42715	149.81339	-141.97315	520.60152	143.42135	-68.61453	517.75507	187.36661	-99.12652	522.34934	73.20881	116.15531	904.37348	76.00533	119.80077	523.29816	133.63354	74.15763	517.55532	132.48497	127.54113	523.59779	144.76967	-160.50008	95.28131	148.31525	-97.87808	91.23635	213.08457	-107.76576	485.59513	78.20259	180.02575	101.07410	86.94170	118.25270	93.43362	168.54006	113.40873	484.69625	107.71583	-124.14536	-0.04994	255.23207	-115.05668	0.44944	244.64526	-180.92463	1.24844	268.76522	-150.11301	0.99876	146.76718	-130.38758	4.44446	344.67067	-162.29784	0.54932	41.69806	148.01563	4.59428	187.11692	121.39878	2.79652	184.42028	188.06574	3.09614	204.69503	154.60742	2.79652	81.29873	149.56370	8.43949	281.49936	157.75350	0.94882 
797	3.317	132.83454	-8.73911	927.79431	217.42916	-122.74710	989.81705	199.95093	116.15531	990.16662	193.65877	-103.77074	1066.47157	179.17681	93.68331	1066.77119	76.70445	-62.42224	890.19115	69.46347	36.25484	890.34096	70.01279	-13.38333	962.30133	118.15282	-9.43824	1029.81723	152.95947	-9.63799	1129.69282	191.66126	-10.38706	1214.78682	351.86171	-6.79154	1216.78433	408.99055	-9.53812	1311.61621	282.69786	-13.73289	1362.85239	238.00354	-11.83526	1295.18667	308.36589	-13.58308	1402.85256	521.75009	-10.23725	1540.58100	441.25036	-77.00408	1488.99526	446.54377	52.88413	1477.75925	402.99801	-7.74036	1513.96416	336.33106	-182.57258	1367.39673	311.11247	163.79597	1352.91477	343.82172	-171.38652	1051.24054	337.97900	-110.81197	1055.18563	305.61931	152.31028	1034.61125	300.67547	91.58592	1037.25796	381.87432	-132.03553	826.57040	424.97064	-116.90438	838.00615	319.40214	-151.06183	1048.04452	343.67191	130.68721	809.09217	383.47233	107.26639	818.43054	283.34705	136.03056	1031.91461	567.84268	-144.96942	786.52028	486.89351	-143.92073	770.78988	429.66480	-123.04673	804.04845	494.48405	215.18196	757.60630	415.03302	193.20933	759.15437	378.12899	140.52496	785.22190	147.16668	-157.10431	901.37722	149.81339	-141.97315	520.60152	143.37141	-68.56459	517.75507	187.36661	-99.12652	522.39928	73.15887	116.15531	904.37348	76.00533	119.85071	523.29816	133.58360	74.15763	517.55532	132.48497	127.54113	523.59779	144.81961	-160.45014	95.28131	148.36519	-97.82814	91.23635	213.03464	-107.76576	485.59513	78.20259	180.07569	101.07410	86.99164	118.25270	93.43362	168.54006	113.40873	484.74618	107.71583	-124.14536	-0.04994	255.23207	-115.00674	0.44944	244.64526	-180.87470	1.24844	268.76522	-150.06308	0.99876	146.81712	-130.38758	4.44446	344.72060	-162.24790	0.49938	41.74800	148.01563	4.59428	187.11692	121.44872	2.79652	184.42028	188.11568	3.09614	204.69503	154.65735	2.79652	81.34867	149.61364	8.43949	281.49936	157.80343	0.94882 
798	3.321	132.78460	-8.73911	927.79431	217.22941	-122.79704	989.96686	199.80112	116.15531	990.26649	193.35915	-103.82068	1066.57144	178.92712	93.68331	1066.87107	76.65452	-62.42224	890.09127	69.46347	36.25484	890.24109	69.91291	-13.38333	962.20145	117.90314	-9.48818	1029.81723	152.55997	-9.63799	1129.74276	191.06201	-10.38706	1214.88670	351.31239	-6.84148	1217.23377	408.19154	-9.58806	1312.21546	281.79898	-13.73289	1363.15201	237.25447	-11.83526	1295.38642	307.41707	-13.58308	1403.20213	520.60152	-10.28719	1541.23019	440.15173	-77.05402	1489.54457	445.44514	52.88413	1478.30857	401.84944	-7.74036	1514.51347	335.48211	-182.57258	1367.69635	310.26353	163.74603	1353.26433	343.82172	-171.08689	1051.64004	337.92906	-110.46240	1055.58513	305.81906	152.21040	1035.01076	300.82528	91.48604	1037.65746	382.07408	-131.83578	826.96990	425.17039	-116.75457	838.45559	319.40214	-150.71227	1048.44402	343.97154	130.73715	809.49167	383.72202	107.31632	818.83004	283.54680	135.93068	1032.26418	567.74280	-145.01936	785.97097	486.69376	-143.87079	770.73994	429.71473	-122.89692	804.34808	494.53399	215.18196	757.45649	415.13290	193.20933	759.30419	378.27880	140.52496	785.52153	147.11675	-157.15424	901.37722	149.76345	-141.87328	520.55158	143.37141	-68.51466	517.75507	187.31667	-99.07659	522.39928	73.10893	116.15531	904.37348	75.95539	119.85071	523.29816	133.53367	74.15763	517.55532	132.43503	127.54113	523.59779	144.86955	-160.40020	95.28131	148.41513	-97.72827	91.23635	213.03464	-107.71583	485.59513	78.25253	180.07569	101.07410	86.99164	118.30264	93.43362	168.49012	113.40873	484.74618	107.76576	-124.09542	-0.04994	255.28201	-114.80699	0.44944	244.74514	-180.72488	1.24844	268.81516	-149.86333	0.99876	146.81712	-130.28771	4.44446	344.77054	-161.99821	0.49938	41.74800	148.06556	4.59428	187.11692	121.39878	2.79652	184.47022	188.06574	3.09614	204.74496	154.55748	2.74658	81.34867	149.61364	8.43949	281.49936	157.65362	0.94882 
799	3.325	132.73466	-8.78905	927.79431	217.07960	-122.84698	990.06674	199.65131	116.10538	990.41631	193.05952	-103.87062	1066.67132	178.62750	93.63337	1066.97095	76.65452	-62.47218	889.99140	69.46347	36.25484	890.14121	69.76310	-13.43327	962.10157	117.65345	-9.48818	1029.76729	152.16046	-9.68793	1129.79269	190.51269	-10.43700	1214.98657	350.71314	-6.89142	1217.68321	407.44248	-9.58806	1312.76478	280.95004	-13.78283	1363.45164	236.50540	-11.88520	1295.58618	306.46825	-13.63302	1403.55169	519.45295	-10.33712	1541.87938	439.10304	-77.05402	1490.09389	444.39645	52.83419	1478.90782	400.75081	-7.79030	1515.01285	334.63317	-182.62252	1367.99598	309.41458	163.69609	1353.61389	343.82172	-170.73732	1051.98961	337.87913	-110.16278	1056.03457	306.01881	152.16046	1035.36032	300.97510	91.38617	1038.00702	382.32377	-131.63603	827.41934	425.42008	-116.55482	838.95497	319.40214	-150.36270	1048.79359	344.22123	130.78709	809.84124	384.02165	107.36626	819.17960	283.69662	135.83080	1032.61374	567.64293	-145.01936	785.37172	486.49401	-143.82085	770.69000	429.76467	-122.79704	804.59777	494.58393	215.23190	757.35661	415.18283	193.20933	759.45400	378.47855	140.52496	785.82116	147.01687	-157.15424	901.37722	149.71351	-141.82334	520.55158	143.32147	-68.46472	517.75507	187.31667	-99.02665	522.39928	73.05900	116.15531	904.37348	75.95539	119.85071	523.29816	133.53367	74.15763	517.55532	132.43503	127.54113	523.64773	144.86955	-160.35026	95.28131	148.41513	-97.72827	91.23635	212.98470	-107.66589	485.64506	78.30246	180.12563	101.07410	87.04158	118.30264	93.43362	168.49012	113.45867	484.74618	107.76576	-124.09542	-0.04994	255.28201	-114.70712	0.44944	244.79508	-180.62501	1.24844	268.86509	-149.76345	0.99876	146.81712	-130.28771	4.44446	344.82048	-161.84840	0.49938	41.79794	148.11550	4.59428	187.11692	121.34884	2.79652	184.52016	188.01580	3.09614	204.74496	154.55748	2.74658	81.39861	149.66357	8.43949	281.54929	157.55375	0.94882 
800	3.329	132.68472	-8.83899	927.79431	216.92979	-122.89692	990.16662	199.50149	116.05544	990.51618	192.80983	-103.92055	1066.77119	178.37781	93.53349	1067.02088	76.65452	-62.47218	889.89152	69.46347	36.20490	890.04134	69.66323	-13.48320	962.00170	117.45370	-9.53812	1029.76729	151.76096	-9.73787	1129.79269	189.96338	-10.48694	1215.08645	350.16382	-6.94135	1218.08272	406.69341	-9.63799	1313.31409	280.05116	-13.78283	1363.75127	235.80627	-11.93513	1295.73599	305.51943	-13.63302	1403.90125	518.30438	-10.38706	1542.52858	438.00441	-77.10396	1490.64321	443.34775	52.78425	1479.50708	399.65218	-7.84023	1515.56217	333.78423	-182.67246	1368.29561	308.61558	163.69609	1353.96346	343.82172	-170.48764	1052.33917	337.87913	-109.91309	1056.43407	306.26850	152.06059	1035.70989	301.17485	91.28629	1038.35659	382.52352	-131.48622	827.81884	425.61983	-116.45494	839.40441	319.40214	-150.11301	1049.19309	344.52085	130.78709	810.24074	384.32128	107.36626	819.57911	283.94631	135.73093	1033.01324	567.54305	-145.06930	784.77246	486.29426	-143.82085	770.59013	429.81461	-122.69716	804.89739	494.68381	215.23190	757.20680	415.28271	193.15939	759.60381	378.67831	140.52496	786.17072	146.96693	-157.20418	901.37722	149.71351	-141.82334	520.55158	143.32147	-68.46472	517.75507	187.26673	-99.02665	522.39928	73.00906	116.15531	904.37348	75.95539	119.85071	523.29816	133.48373	74.15763	517.55532	132.43503	127.54113	523.64773	144.91948	-160.35026	95.28131	148.46507	-97.72827	91.23635	212.98470	-107.66589	485.64506	78.30246	180.12563	101.07410	87.04158	118.35258	93.43362	168.49012	113.40873	484.74618	107.76576	-124.09542	-0.04994	255.28201	-114.80699	0.39950	244.74514	-180.72488	1.24844	268.86509	-149.86333	0.99876	146.86706	-130.28771	4.44446	344.82048	-161.99821	0.49938	41.79794	148.06556	4.59428	187.16686	121.44872	2.79652	184.52016	188.11568	3.09614	204.79490	154.65735	2.74658	81.39861	149.66357	8.43949	281.54929	157.75350	0.89888 
